<svg width="96" height="96" xmlns="http://www.w3.org/2000/svg" xmlns:xlink="http://www.w3.org/1999/xlink" overflow="hidden"><defs><clipPath id="clip0"><rect x="1542" y="-375" width="96" height="96"/></clipPath></defs><g clip-path="url(#clip0)" transform="translate(-1542 375)"><path d="M1601.3-337.7C1597.1-337.7 1593.8-341.1 1593.8-345.2 1593.8-349.3 1597.2-352.7 1601.3-352.7 1605.5-352.7 1608.8-349.3 1608.8-345.2 1608.8-341.1 1605.4-337.7 1601.3-337.7ZM1618.2-349.9C1617.8-351.3 1617.3-352.6 1616.6-353.8L1618.2-358.5 1614.6-362.1 1609.9-360.5C1608.7-361.2 1607.4-361.7 1606-362.1L1603.8-366.5 1598.8-366.5 1596.6-362.1C1595.2-361.7 1593.9-361.2 1592.7-360.5L1588-362.1 1584.4-358.5 1586-353.8C1585.3-352.6 1584.8-351.3 1584.4-349.9L1580-347.7 1580-342.7 1584.4-340.5C1584.8-339.1 1585.3-337.8 1586-336.6L1584.4-331.9 1587.9-328.4 1592.6-330C1593.8-329.3 1595.1-328.8 1596.5-328.4L1598.7-324 1603.7-324 1605.9-328.4C1607.3-328.8 1608.6-329.3 1609.8-330L1614.5-328.4 1618.1-331.9 1616.5-336.6C1617.2-337.8 1617.8-339.2 1618.2-340.5L1622.6-342.7 1622.6-347.7 1618.2-349.9Z"/><path d="M1578.7-301.3C1574.5-301.3 1571.2-304.7 1571.2-308.8 1571.2-313 1574.6-316.3 1578.7-316.3 1582.9-316.3 1586.2-312.9 1586.2-308.8 1586.2-304.7 1582.9-301.3 1578.7-301.3L1578.7-301.3ZM1594-317.4 1595.6-322.1 1592-325.7 1587.3-324.1C1586.1-324.8 1584.7-325.3 1583.4-325.7L1581.2-330.1 1576.2-330.1 1574-325.7C1572.6-325.3 1571.3-324.8 1570.1-324.1L1565.4-325.7 1561.9-322.2 1563.4-317.5C1562.7-316.3 1562.2-314.9 1561.8-313.6L1557.4-311.4 1557.4-306.4 1561.8-304.2C1562.2-302.8 1562.7-301.5 1563.4-300.3L1561.9-295.6 1565.4-292.1 1570.1-293.6C1571.3-292.9 1572.6-292.4 1574-292L1576.2-287.6 1581.2-287.6 1583.4-292C1584.8-292.4 1586.1-292.9 1587.3-293.6L1592-292 1595.5-295.6 1594-300.2C1594.7-301.4 1595.2-302.7 1595.6-304.1L1600-306.3 1600-311.3 1595.6-313.5C1595.2-314.9 1594.7-316.2 1594-317.4Z"/></g></svg>