<svg width="96" height="96" xmlns="http://www.w3.org/2000/svg" xmlns:xlink="http://www.w3.org/1999/xlink" overflow="hidden"><defs><clipPath id="clip0"><rect x="1569" y="-8" width="96" height="96"/></clipPath></defs><g clip-path="url(#clip0)" transform="translate(-1569 8)"><path d="M1607 56 1627 56C1628.7 56 1630 57.3 1630 59 1630 60.7 1628.7 62 1627 62L1607 62C1605.3 62 1604 60.7 1604 59 1604 57.3 1605.3 56 1607 56Z"/><path d="M1607 66 1627 66C1628.7 66 1630 67.3 1630 69 1630 70.7 1628.7 72 1627 72L1607 72C1605.3 72 1604 70.7 1604 69 1604 67.3 1605.3 66 1607 66Z"/><path d="M1610.5 76C1610.8 79.4 1613.6 82 1617 82 1620.4 82 1623.2 79.4 1623.5 76L1610.5 76Z"/><path d="M1617-2C1617-2 1617-2 1617-2 1617-2 1617-2 1617-2 1602.8-1.9 1591.3 9.5 1591 23.7L1591 24.6C1591.1 27.7 1591.7 30.7 1592.8 33.6 1593.9 36.3 1595.4 38.8 1597.3 41 1599.7 43.6 1602.3 48.7 1603.4 50.9 1603.7 51.6 1604.4 52 1605.2 52L1628.8 52C1629.6 52 1630.3 51.6 1630.6 50.9 1631.7 48.7 1634.3 43.6 1636.7 41 1638.6 38.8 1640.2 36.3 1641.2 33.6 1642.3 30.7 1642.9 27.7 1643 24.6L1643 23.7C1642.7 9.5 1631.2-1.9 1617-2ZM1637 24.5C1636.9 26.9 1636.4 29.3 1635.6 31.5 1634.8 33.5 1633.7 35.4 1632.2 37 1629.9 39.8 1627.9 42.8 1626.4 46L1617 46 1607.7 46C1606.1 42.8 1604.1 39.8 1601.9 37 1600.5 35.4 1599.3 33.5 1598.5 31.5 1597.6 29.3 1597.2 26.9 1597.1 24.5L1597.1 23.7C1597.3 12.8 1606.2 4 1617.1 3.9L1617.1 3.9 1617.1 3.9C1617.1 3.9 1617.1 3.9 1617.1 3.9 1617.1 3.9 1617.1 3.9 1617.1 3.9L1617.1 3.9 1617.1 3.9C1628 4 1636.9 12.7 1637.1 23.7L1637.1 24.5Z"/></g></svg>