<svg width="176" height="177" xmlns="http://www.w3.org/2000/svg" xmlns:xlink="http://www.w3.org/1999/xlink" overflow="hidden"><defs><clipPath id="clip0"><rect x="1502" y="-223" width="176" height="177"/></clipPath></defs><g clip-path="url(#clip0)" transform="translate(-1502 223)"><path d="M118.103 132 57.6033 132C50.0095 132 43.8533 138.156 43.8533 145.75 43.8533 153.344 50.0095 159.5 57.6033 159.5L118.103 159.5C125.697 159.5 131.853 153.344 131.853 145.75 131.853 138.156 125.697 132 118.103 132ZM61.27 151.25C58.2323 151.25 55.77 148.788 55.77 145.75 55.77 142.712 58.2323 140.25 61.27 140.25 64.3077 140.25 66.77 142.712 66.77 145.75 66.77 148.788 64.3077 151.25 61.27 151.25ZM87.8533 151.25C84.8157 151.25 82.3533 148.788 82.3533 145.75 82.3533 142.712 84.8157 140.25 87.8533 140.25 90.891 140.25 93.3533 142.712 93.3533 145.75 93.3533 148.788 90.891 151.25 87.8533 151.25ZM114.437 151.25C111.399 151.25 108.937 148.788 108.937 145.75 108.937 142.712 111.399 140.25 114.437 140.25 117.474 140.25 119.937 142.712 119.937 145.75 119.937 148.788 117.474 151.25 114.437 151.25Z" transform="matrix(1 0 0 1.00568 1502 -223)"/><path d="M100.522 51.3333C100.522 52.8521 99.2905 54.0833 97.7717 54.0833 96.2529 54.0833 95.0217 52.8521 95.0217 51.3333 95.0217 49.8146 96.2529 48.5833 97.7717 48.5833 99.2905 48.5833 100.522 49.8146 100.522 51.3333Z" transform="matrix(1 0 0 1.00568 1502 -223)"/><path d="M103.785 33 91.6667 33 91.6667 24.6583C95.1742 22.6332 96.376 18.1483 94.3509 14.6408 92.3258 11.1333 87.8409 9.93159 84.3333 11.9566 80.8258 13.9817 79.6241 18.4666 81.6492 21.9741 82.2928 23.089 83.2185 24.0147 84.3333 24.6583L84.3333 33 72.215 33C67.7743 33.0101 64.1768 36.6076 64.1667 41.0483L64.1667 61.6183C64.1768 66.059 67.7743 69.6566 72.215 69.6667L103.785 69.6667C108.226 69.6566 111.823 66.059 111.833 61.6183L111.833 41.0483C111.823 36.6076 108.226 33.0101 103.785 33ZM78.8333 56.8333C75.7957 56.8333 73.3333 54.371 73.3333 51.3333 73.3333 48.2957 75.7957 45.8333 78.8333 45.8333 81.871 45.8333 84.3333 48.2957 84.3333 51.3333 84.3333 54.371 81.871 56.8333 78.8333 56.8333ZM97.1667 56.8333C94.129 56.8333 91.6667 54.371 91.6667 51.3333 91.6667 48.2957 94.129 45.8333 97.1667 45.8333 100.204 45.8333 102.667 48.2957 102.667 51.3333 102.667 54.371 100.204 56.8333 97.1667 56.8333Z" transform="matrix(1 0 0 1.00568 1502 -223)"/><path d="M82.1883 51.3333C82.1883 52.8521 80.9571 54.0833 79.4383 54.0833 77.9196 54.0833 76.6883 52.8521 76.6883 51.3333 76.6883 49.8146 77.9196 48.5833 79.4383 48.5833 80.9571 48.5833 82.1883 49.8146 82.1883 51.3333Z" transform="matrix(1 0 0 1.00568 1502 -223)"/><path d="M135.667 107.837 135.667 92.565C135.667 88.0187 131.981 84.3333 127.435 84.3333L117.333 84.3333 117.333 75.1667 58.6667 75.1667 58.6667 86.1667 44.8983 86.1667C44.4022 86.1667 44 85.7644 44 85.2683L44 70.07C50.3023 68.2088 53.9024 61.591 52.0412 55.2889 51.5421 53.5993 50.6742 52.0417 49.5 50.7283L44 55.605C44.7693 56.4416 45.2062 57.5304 45.2283 58.6667 45.2146 61.1979 43.1514 63.2388 40.6201 63.2251 38.0888 63.2111 36.0481 61.1481 36.0618 58.6168 36.0677 57.5234 36.4643 56.4683 37.18 55.6417L31.68 50.82C27.359 55.7843 27.8806 63.3114 32.8449 67.6324 33.968 68.6099 35.2642 69.3684 36.6667 69.8683L36.6667 85.2683C36.6667 89.8146 40.352 93.5 44.8983 93.5L58.6667 93.5 58.6667 126.5 117.333 126.5 117.333 91.6667 127.435 91.6667C127.931 91.6667 128.333 92.0689 128.333 92.565L128.333 107.837C122.071 109.862 118.637 116.581 120.663 122.843 121.17 124.41 121.996 125.855 123.09 127.087L128.59 122.21C127.831 121.378 127.413 120.292 127.417 119.167 127.419 116.635 129.473 114.585 132.004 114.587 134.535 114.589 136.586 116.643 136.583 119.174 136.582 120.285 136.179 121.357 135.447 122.192L140.947 127.013C145.285 122.077 144.8 114.559 139.864 110.221 138.642 109.148 137.214 108.336 135.667 107.837ZM110 100.833 104.903 100.833C104.726 100.865 104.557 100.934 104.408 101.035L98.7983 106.773 94.5267 96.6533 86.5517 113.153 80.96 91.6667 76.6517 100.833 67.8333 100.833 67.8333 97.1667 74.3233 97.1667 81.95 80.9417 87.5967 102.538 94.765 87.8717 100.045 100.375 101.878 98.5417C102.683 97.7269 103.76 97.2374 104.903 97.1667L110 97.1667Z" transform="matrix(1 0 0 1.00568 1502 -223)"/></g></svg>